<svg width="135" height="36" viewBox="0 0 135 36" fill="none" xmlns="http://www.w3.org/2000/svg">
<g clip-path="url(#clip0_12_97)">
<path d="M21.2312 23.2206C23.5933 21.0663 25.9565 18.9121 28.3197 16.7578C30.242 15.0055 32.1631 13.2521 34.0865 11.501C35.7859 9.9533 37.4877 8.40905 39.1871 6.86131C40.7282 5.45882 42.2704 4.05749 43.8056 2.65035C44.2278 2.26342 44.4073 1.77888 44.2806 1.21184C44.1117 0.45656 43.4972 0.00339319 42.614 0.00339319C38.2488 -0.00125467 33.8836 0.00106926 29.5195 0.00106926C29.0528 0.00106926 28.6493 0.141667 28.301 0.463531C27.5363 1.17117 26.7587 1.86486 25.9882 2.56553C24.2524 4.14347 22.5167 5.72142 20.7832 7.3017C19.5072 8.46482 18.237 9.6326 16.961 10.7957C15.1983 12.4039 13.432 14.0086 11.6693 15.6167C9.98863 17.1493 8.30915 18.6843 6.62851 20.2181C4.65348 22.0191 2.67846 23.819 0.702264 25.6178C0.233137 26.0454 0.0103017 26.5775 0.0091289 27.1992C0.00443763 29.5429 0.00443763 31.8866 0.0114745 34.2302C0.0114745 34.4243 0.046659 34.6276 0.11351 34.8089C0.348073 35.4433 0.880532 35.7652 1.6628 35.7652C4.09288 35.7652 6.52295 35.7652 8.9542 35.7652C11.3761 35.7652 13.7991 35.7652 16.221 35.7652C16.3242 35.7652 16.4286 35.7617 16.5318 35.7536C17.3586 35.6885 17.9239 35.082 17.9251 34.2628C17.9251 31.9586 17.9251 29.6544 17.9251 27.3502C17.9251 27.1341 17.9861 26.9552 18.1937 26.8634C18.3977 26.7739 18.5772 26.8355 18.7425 26.9807C19.3688 27.5338 19.9998 28.0811 20.6284 28.6307C21.8974 29.7404 23.1676 30.8501 24.4366 31.9598C25.7243 33.0845 27.0168 34.2035 28.2986 35.3353C28.6329 35.6304 28.9976 35.7815 29.4468 35.7815C33.8918 35.7768 38.3368 35.7791 42.7818 35.7791C43.4796 35.7791 43.9675 35.4596 44.2161 34.8403C44.4343 34.2965 44.2759 33.6934 43.7786 33.2565C42.6868 32.2944 41.589 31.3393 40.4924 30.383C39.0663 29.1385 37.6366 27.8975 36.2128 26.6496C35.9102 26.3846 35.5689 26.2475 35.169 26.2475C34.8418 26.2475 34.5134 26.2475 34.1862 26.2475C29.9887 26.2475 25.7923 26.2475 21.5948 26.2475C20.9932 26.2475 20.4853 25.9036 20.2566 25.3459C20.0373 24.8125 20.1558 24.2385 20.5815 23.8225C20.7914 23.6168 21.0143 23.424 21.2312 23.2253V23.2206Z" fill="#1F1F1F"/>
<path d="M0.886649 22.1355C1.44139 22.3865 2.04187 22.2505 2.51804 21.8067C2.98834 21.3674 3.46802 20.9375 3.94418 20.5041C5.43131 19.1504 6.92079 17.7967 8.40675 16.4419C9.68747 15.2741 10.9647 14.1017 12.2454 12.9339C13.9682 11.3641 15.6911 9.79658 17.4175 8.23142C17.7447 7.93512 17.9101 7.5691 17.9113 7.14033C17.9183 5.25563 17.9195 3.37208 17.9113 1.48737C17.9077 0.532237 17.0786 0.00354307 16.3737 0.005867C11.4209 0.0267824 6.46457 0.0174867 1.50824 0.0174867C0.622766 0.0174867 0.00234563 0.631004 0.00117282 1.50596C0.00117282 4.71183 0.00117282 7.91885 0.00117282 11.1247C0.00117282 14.3306 0.00351845 17.5376 0 20.7435C0 21.3988 0.292031 21.8659 0.886649 22.1355Z" fill="#1F1F1F"/>
<path d="M56.1836 20.2358L50.7676 35.7806H54.3224L55.4858 32.2355H61.1505L62.3116 35.7806H65.8664L60.4574 20.2358H56.1825H56.1836ZM56.3279 29.671L58.2595 23.7891H58.3827L60.3108 29.671H56.3291H56.3279Z" fill="#1F1F1F"/>
<path d="M75.471 20.2358H72.1543V35.7806H75.471V20.2358Z" fill="#1F1F1F"/>
<path d="M91.7966 29.6777C92.6469 29.2826 93.2967 28.7156 93.7459 27.9731C94.195 27.2317 94.4202 26.3451 94.4202 25.3122C94.4202 24.2792 94.1997 23.3903 93.7576 22.6292C93.3154 21.8681 92.6751 21.2778 91.8342 20.8607C90.9944 20.4435 89.9811 20.2344 88.7966 20.2344H82.6064V35.7791H85.9232V30.2691H88.345L91.317 35.7791H94.9785L91.6489 29.7392C91.6981 29.7183 91.7474 29.6997 91.7955 29.6777H91.7966ZM85.9243 22.922H88.1609C88.7989 22.922 89.329 23.015 89.7501 23.1985C90.1711 23.3833 90.4854 23.6529 90.6918 24.0073C90.8983 24.3617 91.0026 24.7962 91.0026 25.3133C91.0026 25.8304 90.8994 26.2522 90.6918 26.5961C90.4854 26.9401 90.1723 27.198 89.7536 27.37C89.3349 27.542 88.8083 27.628 88.175 27.628H85.9232V22.922H85.9243Z" fill="#1F1F1F"/>
<path d="M111.98 20.9597C110.869 20.3345 109.621 20.022 108.237 20.022C106.853 20.022 105.591 20.3345 104.483 20.9597C103.375 21.5848 102.499 22.4911 101.855 23.681C101.211 24.8697 100.89 26.3129 100.89 28.007C100.89 29.7011 101.211 31.1373 101.855 32.326C102.499 33.5147 103.375 34.4234 104.483 35.0508C105.591 35.6783 106.843 35.992 108.237 35.992C109.632 35.992 110.869 35.6794 111.98 35.0543C113.09 34.4292 113.969 33.5228 114.615 32.333C115.261 31.1443 115.584 29.7023 115.584 28.007C115.584 26.3117 115.261 24.8697 114.615 23.681C113.969 22.4923 113.09 21.5848 111.98 20.9597ZM111.726 30.7853C111.397 31.5394 110.934 32.1111 110.336 32.5003C109.737 32.8896 109.038 33.0848 108.236 33.0848C107.434 33.0848 106.735 32.8896 106.137 32.5003C105.539 32.1111 105.075 31.5394 104.746 30.7853C104.416 30.0311 104.252 29.1051 104.252 28.007C104.252 26.9089 104.416 25.9829 104.746 25.2287C105.075 24.4746 105.539 23.9029 106.137 23.5137C106.734 23.1244 107.434 22.9292 108.236 22.9292C109.038 22.9292 109.737 23.1244 110.336 23.5137C110.932 23.9029 111.397 24.4746 111.726 25.2287C112.056 25.9829 112.22 26.9089 112.22 28.007C112.22 29.1051 112.056 30.0311 111.726 30.7853Z" fill="#1F1F1F"/>
<path d="M133.985 29.6161C133.753 29.1153 133.427 28.6796 133.008 28.3101C132.589 27.9406 132.093 27.6292 131.522 27.377C130.95 27.1237 130.322 26.9215 129.637 26.7693L128.228 26.4358C127.885 26.3603 127.564 26.2673 127.262 26.1593C126.961 26.0501 126.696 25.9211 126.466 25.7724C126.236 25.6236 126.057 25.4447 125.925 25.2367C125.795 25.0287 125.735 24.7858 125.745 24.5081C125.745 24.1746 125.843 23.876 126.04 23.6123C126.237 23.3497 126.521 23.1428 126.894 22.9941C127.267 22.8454 127.724 22.7698 128.265 22.7698C129.061 22.7698 129.692 22.9395 130.157 23.2788C130.621 23.6181 130.885 24.0933 130.946 24.7057H134.126C134.11 23.7796 133.861 22.965 133.375 22.2621C132.889 21.5591 132.212 21.0095 131.341 20.6156C130.47 20.2205 129.453 20.0229 128.288 20.0229C127.124 20.0229 126.123 20.2205 125.224 20.6156C124.324 21.0106 123.62 21.5591 123.106 22.2621C122.592 22.965 122.339 23.7877 122.343 24.7289C122.339 25.8781 122.719 26.7914 123.485 27.4688C124.25 28.1474 125.295 28.6447 126.618 28.9643L128.327 29.3895C128.9 29.5267 129.383 29.6777 129.779 29.845C130.174 30.0124 130.476 30.2145 130.683 30.4527C130.89 30.6909 130.994 30.9838 130.994 31.3335C130.994 31.7077 130.879 32.0388 130.649 32.3282C130.42 32.6163 130.097 32.8417 129.681 33.0033C129.264 33.1648 128.775 33.2461 128.213 33.2461C127.652 33.2461 127.13 33.159 126.677 32.9847C126.224 32.8104 125.865 32.5501 125.597 32.2027C125.328 31.8564 125.177 31.4218 125.141 30.9013H121.931C121.956 32.0191 122.231 32.9568 122.754 33.7132C123.277 34.4697 124.008 35.0402 124.945 35.4248C125.882 35.8094 126.984 36.0011 128.251 36.0011C129.518 36.0011 130.619 35.8106 131.527 35.4283C132.433 35.046 133.128 34.5068 133.611 33.812C134.094 33.116 134.337 32.2933 134.343 31.3417C134.338 30.6944 134.218 30.1193 133.986 29.6185L133.985 29.6161Z" fill="#1F1F1F"/>
</g>
<defs>
<clipPath id="clip0_12_97">
<rect width="134.341" height="36" fill="white"/>
</clipPath>
</defs>
</svg>
