<?xml version="1.0" encoding="UTF-8"?><svg id="Capa_2" xmlns="http://www.w3.org/2000/svg" viewBox="0 0 1145.85 500"><defs><style>.cls-1{fill:#edf4fb;}</style></defs><path class="cls-1" d="m76.35,307.79c-20.72,0-41.44,0-62.17,0-6.67,0-11.22-2.77-13.21-8.23-.57-1.56-.87-3.32-.87-4.98-.06-20.17-.06-40.34-.02-60.51,0-5.35,1.91-9.93,5.91-13.61,16.86-15.48,33.7-30.97,50.53-46.47,14.33-13.19,28.64-26.41,42.98-39.6,15.03-13.84,30.09-27.65,45.12-41.49,10.87-10.01,21.71-20.06,32.59-30.07,14.78-13.6,29.58-27.18,44.38-40.76,6.57-6.03,13.2-12,19.72-18.09C244.27,1.21,247.7,0,251.69,0c37.22,0,74.44-.02,111.65.02,7.54,0,12.78,3.91,14.21,10.4,1.08,4.88-.45,9.05-4.05,12.38-13.1,12.11-26.24,24.17-39.38,36.24-14.49,13.31-29,26.61-43.49,39.93-16.4,15.07-32.78,30.16-49.17,45.24-20.15,18.54-40.29,37.08-60.44,55.62-1.85,1.71-3.75,3.37-5.54,5.14-3.63,3.58-4.64,8.52-2.77,13.11,1.95,4.8,6.28,7.76,11.41,7.76,35.79,0,71.57,0,107.36,0,2.79,0,5.59,0,8.38,0,3.41,0,6.32,1.18,8.9,3.46,12.14,10.74,24.33,21.42,36.49,32.13,9.35,8.23,18.71,16.46,28.02,24.73,4.24,3.77,5.59,8.96,3.73,13.63-2.12,5.33-6.28,8.08-12.23,8.09-37.9,0-75.8-.01-113.7.02-3.83,0-6.94-1.3-9.79-3.84-10.93-9.74-21.95-19.37-32.93-29.05-10.83-9.55-21.65-19.1-32.47-28.65-5.36-4.73-10.74-9.45-16.08-14.2-1.4-1.25-2.93-1.78-4.68-1.01-1.77.78-2.29,2.33-2.29,4.19.02,19.83.01,39.66,0,59.49,0,7.06-4.82,12.27-11.88,12.83-.88.07-1.77.1-2.65.1-20.65,0-41.31,0-61.96,0Z"/><path class="cls-1" d="m.01,95.74c0-27.59,0-55.19,0-82.78C.02,5.43,5.31.15,12.86.15c42.26,0,84.51.08,126.77-.09,6-.02,13.07,4.53,13.11,12.75.07,16.22.05,32.43,0,48.65-.01,3.69-1.42,6.84-4.21,9.39-14.72,13.47-29.42,26.96-44.1,40.47-10.93,10.05-21.81,20.14-32.73,30.19-12.67,11.66-25.37,23.31-38.06,34.96-4.06,3.73-8.15,7.43-12.16,11.21-4.06,3.82-9.18,4.99-13.91,2.83C2.49,188.18,0,184.17,0,178.52c.03-27.59.01-55.19.01-82.78Z"/><path class="cls-1" d="m463.18,307.93h-30.31l46.18-133.78h36.45l46.12,133.78h-30.31l-33.51-103.21h-1.05l-33.58,103.21Zm-1.89-52.58h71.59v22.08h-71.59v-22.08Z"/><path class="cls-1" d="m643.5,174.15v133.78h-28.28v-133.78h28.28Z"/><path class="cls-1" d="m704.34,307.93v-133.78h52.78c10.1,0,18.74,1.8,25.9,5.39,7.16,3.59,12.63,8.67,16.4,15.22,3.77,6.55,5.65,14.25,5.65,23.09s-1.92,16.52-5.75,22.9c-3.83,6.38-9.37,11.27-16.62,14.67-7.25,3.4-16.02,5.1-26.29,5.1h-35.34v-22.73h30.77c5.4,0,9.89-.74,13.46-2.22,3.57-1.48,6.24-3.7,8-6.66,1.76-2.96,2.65-6.64,2.65-11.04s-.88-8.19-2.65-11.24c-1.76-3.05-4.44-5.37-8.03-6.96-3.59-1.59-8.11-2.38-13.55-2.38h-19.07v110.66h-28.28Zm72.25-60.88l33.25,60.88h-31.22l-32.53-60.88h30.51Z"/><path class="cls-1" d="m985.52,241.04c0,14.59-2.75,27-8.26,37.23-5.51,10.23-13,18.04-22.47,23.42-9.47,5.38-20.11,8.07-31.91,8.07s-22.56-2.7-32.01-8.1c-9.45-5.4-16.92-13.22-22.41-23.45-5.49-10.23-8.23-22.62-8.23-37.17s2.74-27,8.23-37.23c5.49-10.23,12.96-18.04,22.41-23.42,9.45-5.38,20.12-8.07,32.01-8.07s22.44,2.69,31.91,8.07c9.47,5.38,16.96,13.18,22.47,23.42,5.51,10.23,8.26,22.65,8.26,37.23Zm-28.68,0c0-9.45-1.4-17.42-4.21-23.91-2.81-6.49-6.76-11.41-11.86-14.76-5.1-3.35-11.06-5.03-17.9-5.03s-12.8,1.68-17.9,5.03c-5.1,3.35-9.05,8.27-11.86,14.76-2.81,6.49-4.21,14.46-4.21,23.91s1.4,17.42,4.21,23.91c2.81,6.49,6.76,11.41,11.86,14.76,5.1,3.35,11.06,5.03,17.9,5.03s12.8-1.68,17.9-5.03c5.1-3.35,9.05-8.27,11.86-14.76,2.81-6.49,4.21-14.46,4.21-23.91Z"/><path class="cls-1" d="m1116.52,212.62c-.52-5.27-2.77-9.36-6.73-12.28-3.96-2.92-9.34-4.38-16.13-4.38-4.62,0-8.51.64-11.69,1.93-3.18,1.29-5.61,3.06-7.28,5.32-1.68,2.26-2.52,4.83-2.52,7.71-.09,2.4.42,4.49,1.54,6.27,1.11,1.79,2.65,3.32,4.61,4.61,1.96,1.28,4.22,2.4,6.79,3.33,2.57.94,5.31,1.73,8.23,2.38l12.02,2.87c5.84,1.31,11.19,3.05,16.07,5.23,4.88,2.18,9.1,4.86,12.67,8.03,3.57,3.18,6.35,6.92,8.33,11.24,1.98,4.31,2.99,9.25,3.04,14.83-.04,8.19-2.12,15.28-6.24,21.26-4.12,5.99-10.04,10.63-17.77,13.91-7.73,3.29-17.04,4.93-27.93,4.93s-20.2-1.66-28.19-4.96c-7.99-3.31-14.22-8.22-18.68-14.73-4.46-6.51-6.8-14.58-7.02-24.2h27.37c.3,4.49,1.6,8.22,3.89,11.2,2.29,2.98,5.36,5.23,9.21,6.73,3.85,1.5,8.22,2.25,13.1,2.25s8.96-.7,12.51-2.09c3.55-1.39,6.3-3.33,8.26-5.81,1.96-2.48,2.94-5.33,2.94-8.56,0-3-.88-5.53-2.65-7.58-1.76-2.05-4.33-3.79-7.71-5.23-3.38-1.44-7.5-2.74-12.38-3.92l-14.57-3.66c-11.28-2.74-20.18-7.03-26.72-12.87-6.53-5.84-9.78-13.7-9.73-23.58-.04-8.1,2.12-15.18,6.5-21.23,4.38-6.05,10.4-10.78,18.06-14.17,7.66-3.4,16.37-5.1,26.13-5.1s18.61,1.7,26.03,5.1c7.42,3.4,13.21,8.12,17.34,14.17,4.14,6.05,6.27,13.06,6.4,21.03h-27.11Z"/><path class="cls-1" d="m.22,498.62v-84.24h37.35c7.51,0,13.22.76,17.12,2.27,3.91,1.51,7.03,4.19,9.37,8.02,2.34,3.83,3.51,8.06,3.51,12.7,0,5.98-1.93,11.01-5.8,15.11-3.87,4.1-9.85,6.7-17.93,7.81,2.95,1.42,5.19,2.82,6.72,4.19,3.26,2.99,6.34,6.72,9.25,11.2l14.65,22.93h-14.02l-11.15-17.53c-3.26-5.06-5.94-8.93-8.04-11.61-2.11-2.68-3.99-4.56-5.66-5.63-1.67-1.07-3.36-1.82-5.09-2.24-1.26-.27-3.33-.4-6.21-.4h-12.93v37.41H.22Zm11.15-47.06h23.96c5.09,0,9.08-.53,11.95-1.58,2.87-1.05,5.06-2.74,6.55-5.06,1.49-2.32,2.24-4.84,2.24-7.56,0-3.98-1.45-7.26-4.34-9.83-2.89-2.57-7.46-3.85-13.7-3.85H11.37v27.87Z"/><path class="cls-1" d="m219.63,478.97l10.69,1.32c-1.69,6.24-4.81,11.09-9.37,14.54-4.56,3.45-10.38,5.17-17.47,5.17-8.93,0-16-2.75-21.23-8.25-5.23-5.5-7.84-13.21-7.84-23.13s2.64-18.23,7.93-23.9c5.29-5.67,12.14-8.5,20.57-8.5s14.82,2.78,20,8.33c5.17,5.55,7.76,13.37,7.76,23.44,0,.61-.02,1.53-.06,2.76h-45.51c.38,6.7,2.28,11.84,5.69,15.4,3.41,3.56,7.66,5.34,12.76,5.34,3.79,0,7.03-1,9.71-2.99,2.68-1.99,4.81-5.17,6.38-9.54Zm-33.96-16.72h34.07c-.46-5.13-1.76-8.98-3.91-11.55-3.3-3.98-7.57-5.98-12.81-5.98-4.75,0-8.74,1.59-11.98,4.77-3.24,3.18-5.03,7.43-5.37,12.76Z"/><path class="cls-1" d="m333.31,480.41l10.23-1.61c.57,4.1,2.17,7.24,4.8,9.42,2.62,2.18,6.29,3.28,11,3.28s8.27-.97,10.57-2.9c2.3-1.93,3.45-4.2,3.45-6.81,0-2.34-1.02-4.17-3.05-5.52-1.42-.92-4.94-2.09-10.57-3.5-7.58-1.92-12.84-3.57-15.77-4.97-2.93-1.4-5.15-3.33-6.67-5.8-1.51-2.47-2.27-5.2-2.27-8.19,0-2.72.62-5.24,1.87-7.56,1.24-2.32,2.94-4.24,5.09-5.77,1.61-1.19,3.8-2.19,6.58-3.02,2.78-.82,5.76-1.24,8.94-1.24,4.79,0,8.99.69,12.61,2.07,3.62,1.38,6.29,3.25,8.02,5.6,1.72,2.36,2.91,5.51,3.56,9.45l-10.11,1.38c-.46-3.14-1.79-5.59-3.99-7.35-2.2-1.76-5.32-2.64-9.34-2.64-4.75,0-8.14.79-10.17,2.36-2.03,1.57-3.05,3.41-3.05,5.52,0,1.34.42,2.55,1.26,3.62.84,1.11,2.16,2.03,3.96,2.76,1.03.38,4.08,1.26,9.14,2.64,7.32,1.95,12.42,3.55,15.31,4.8,2.89,1.25,5.16,3.06,6.81,5.43,1.65,2.38,2.47,5.32,2.47,8.85s-1.01,6.69-3.02,9.74c-2.01,3.05-4.91,5.4-8.71,7.07-3.79,1.67-8.08,2.5-12.87,2.5-7.93,0-13.97-1.65-18.13-4.94-4.16-3.29-6.81-8.18-7.96-14.65Z"/><path class="cls-1" d="m532.2,478.97l10.69,1.32c-1.69,6.24-4.81,11.09-9.37,14.54-4.56,3.45-10.38,5.17-17.47,5.17-8.93,0-16-2.75-21.23-8.25-5.23-5.5-7.84-13.21-7.84-23.13s2.64-18.23,7.93-23.9c5.29-5.67,12.14-8.5,20.57-8.5s14.82,2.78,20,8.33c5.17,5.55,7.76,13.37,7.76,23.44,0,.61-.02,1.53-.06,2.76h-45.51c.38,6.7,2.28,11.84,5.69,15.4,3.41,3.56,7.66,5.34,12.76,5.34,3.79,0,7.03-1,9.71-2.99,2.68-1.99,4.81-5.17,6.38-9.54Zm-33.96-16.72h34.07c-.46-5.13-1.76-8.98-3.91-11.55-3.3-3.98-7.57-5.98-12.81-5.98-4.75,0-8.74,1.59-11.98,4.77-3.24,3.18-5.03,7.43-5.37,12.76Z"/><path class="cls-1" d="m689.84,491.09c-3.83,3.26-7.52,5.56-11.06,6.9-3.54,1.34-7.35,2.01-11.41,2.01-6.7,0-11.86-1.64-15.46-4.91-3.6-3.28-5.4-7.46-5.4-12.56,0-2.99.68-5.72,2.04-8.19,1.36-2.47,3.14-4.45,5.34-5.95,2.2-1.49,4.68-2.62,7.44-3.39,2.03-.54,5.09-1.05,9.19-1.55,8.35-1,14.5-2.18,18.44-3.56.04-1.42.06-2.32.06-2.7,0-4.21-.98-7.18-2.93-8.91-2.64-2.34-6.57-3.5-11.78-3.5-4.87,0-8.46.85-10.77,2.56-2.32,1.71-4.03,4.72-5.14,9.05l-10.11-1.38c.92-4.33,2.43-7.82,4.54-10.49,2.11-2.66,5.15-4.71,9.14-6.15,3.98-1.44,8.6-2.15,13.85-2.15s9.44.61,12.7,1.84c3.26,1.23,5.65,2.77,7.18,4.63,1.53,1.86,2.6,4.2,3.22,7.04.34,1.76.52,4.94.52,9.54v13.79c0,9.62.22,15.7.66,18.24.44,2.55,1.31,4.99,2.61,7.33h-10.8c-1.07-2.14-1.76-4.65-2.07-7.53Zm-.86-23.1c-3.75,1.53-9.39,2.84-16.89,3.91-4.25.61-7.26,1.3-9.02,2.07-1.76.77-3.12,1.89-4.08,3.36-.96,1.47-1.44,3.11-1.44,4.91,0,2.76,1.04,5.06,3.13,6.9,2.09,1.84,5.14,2.76,9.17,2.76s7.53-.87,10.63-2.61c3.1-1.74,5.38-4.13,6.84-7.15,1.11-2.34,1.67-5.78,1.67-10.34v-3.79Z"/><path class="cls-1" d="m809.5,498.62v-61.02h9.31v9.25c2.37-4.33,4.57-7.18,6.58-8.56,2.01-1.38,4.22-2.07,6.64-2.07,3.49,0,7.03,1.11,10.63,3.33l-3.56,9.6c-2.53-1.49-5.06-2.24-7.58-2.24-2.26,0-4.29.68-6.09,2.04-1.8,1.36-3.08,3.25-3.85,5.66-1.15,3.68-1.72,7.7-1.72,12.07v31.95h-10.34Z"/><path class="cls-1" d="m982.76,476.27l10.17,1.32c-1.11,7.01-3.96,12.5-8.53,16.46-4.58,3.96-10.2,5.95-16.86,5.95-8.35,0-15.06-2.73-20.14-8.19-5.08-5.46-7.61-13.28-7.61-23.47,0-6.59,1.09-12.35,3.28-17.3,2.18-4.94,5.51-8.65,9.97-11.12,4.46-2.47,9.32-3.71,14.57-3.71,6.63,0,12.05,1.68,16.26,5.03,4.21,3.35,6.91,8.11,8.1,14.28l-10.06,1.55c-.96-4.1-2.65-7.18-5.09-9.25-2.43-2.07-5.37-3.1-8.82-3.1-5.21,0-9.44,1.87-12.7,5.6-3.26,3.73-4.88,9.64-4.88,17.73s1.57,14.16,4.71,17.87c3.14,3.72,7.24,5.57,12.3,5.57,4.06,0,7.45-1.24,10.17-3.73,2.72-2.49,4.44-6.32,5.17-11.49Z"/><path class="cls-1" d="m1095.92,498.62v-84.24h10.34v30.22c4.83-5.59,10.92-8.39,18.27-8.39,4.52,0,8.45.89,11.78,2.67,3.33,1.78,5.72,4.24,7.15,7.38,1.44,3.14,2.15,7.7,2.15,13.68v38.67h-10.34v-38.67c0-5.17-1.12-8.94-3.36-11.29-2.24-2.36-5.41-3.53-9.51-3.53-3.07,0-5.95.8-8.65,2.38-2.7,1.59-4.63,3.74-5.77,6.46-1.15,2.72-1.72,6.47-1.72,11.26v33.38h-10.34Z"/></svg>