<svg width="160" height="340" viewBox="0 0 160 340" fill="none" xmlns="http://www.w3.org/2000/svg">
<line x1="81" y1="160" x2="81" y2="308" stroke="#EDF4FB" stroke-width="2" stroke-dasharray="8 8"/>
<circle cx="80" cy="80" r="80" fill="#57FFDC"/>
<path d="M96 324C96 332.837 88.8366 340 80 340C71.1634 340 64 332.837 64 324C64 315.163 71.1634 308 80 308C88.8366 308 96 315.163 96 324Z" fill="#57FFDC"/>
<g clip-path="url(#clip0_304_124)">
<path d="M80.4553 104.968C78.2039 104.968 75.9487 104.979 73.6973 104.968C71.2233 104.953 69.8324 103.821 69.3873 101.431C68.6046 97.24 66.8317 93.5342 63.8792 90.4204C60.7932 87.1631 58.6938 83.4023 57.6775 79.0274C55.1516 68.1381 61.4831 56.4254 72.043 52.5395C82.4026 48.7271 93.3631 52.0726 99.7429 60.995C105.774 69.4322 105.103 81.6009 98.0775 89.2881C95.2363 92.3982 92.9106 95.7474 91.9463 99.8979C91.8276 100.405 91.72 100.913 91.6198 101.42C91.1636 103.787 89.7616 104.949 87.3024 104.964C85.0176 104.975 82.7365 104.964 80.4516 104.964L80.4553 104.968ZM79.7543 57.5136C75.5927 57.7415 71.954 59.2267 68.9385 62.0832C65.4927 65.3441 63.7494 69.3771 63.6641 74.0975C63.6381 75.5901 64.7138 76.7077 66.1381 76.7702C67.5772 76.8363 68.6788 75.9099 68.868 74.4688C68.9162 74.1048 68.9348 73.7372 68.9719 73.3732C69.454 68.5278 72.0022 65.1861 76.5533 63.4472C77.8441 62.9545 79.3129 62.9067 80.7076 62.6898C82.2469 62.4472 83.1779 61.4068 83.1074 59.9436C83.0332 58.326 81.7202 57.3775 79.7543 57.5136Z" fill="#1F1F1F"/>
<path d="M80.5737 108.475C83.133 108.475 85.6924 108.467 88.2517 108.475C90.2472 108.482 91.2709 109.482 91.2932 111.456C91.3043 112.372 91.3117 113.291 91.2598 114.206C91.1559 115.986 89.995 117.497 88.2739 118C87.7027 118.169 87.4987 118.46 87.3578 118.971C86.3414 122.688 85.9334 122.993 82.0611 122.993C80.5181 122.993 78.9788 123.004 77.4358 122.993C75.5924 122.974 74.5167 122.147 74.0011 120.393C73.9678 120.276 73.9121 120.162 73.8973 120.041C73.7526 118.894 73.3075 118.133 72.0576 117.68C70.6184 117.158 69.8432 115.864 69.7319 114.309C69.6577 113.276 69.6466 112.232 69.6837 111.195C69.7431 109.493 70.7964 108.493 72.5175 108.482C75.1992 108.464 77.8846 108.479 80.5663 108.479L80.5737 108.475Z" fill="#1F1F1F"/>
<path d="M42.1884 76.7224C40.7715 76.7224 39.3509 76.7334 37.934 76.7224C36.1981 76.7003 34.9889 75.6085 35.0001 74.0828C35.0112 72.5976 36.1722 71.513 37.8784 71.4947C40.7752 71.4652 43.672 71.4652 46.5689 71.4947C48.3344 71.5094 49.5065 72.6012 49.4917 74.1269C49.4768 75.6673 48.2973 76.7114 46.5318 76.7224C45.0815 76.7334 43.635 76.7224 42.1847 76.7224H42.1884Z" fill="#1F1F1F"/>
<path d="M118.756 76.7224C117.306 76.7224 115.86 76.7334 114.409 76.7224C112.71 76.704 111.546 75.6636 111.509 74.1563C111.472 72.66 112.614 71.524 114.305 71.502C117.265 71.4616 120.221 71.4652 123.181 71.502C124.862 71.524 126.03 72.6711 125.997 74.1489C125.963 75.6526 124.787 76.7077 123.1 76.7224C121.653 76.7371 120.203 76.7224 118.753 76.7224H118.756Z" fill="#1F1F1F"/>
<path d="M50.5416 106.784C49.1692 106.707 48.3829 106.291 47.8933 105.412C47.3851 104.501 47.437 103.589 48.012 102.729C48.2123 102.427 48.483 102.163 48.7427 101.905C50.7233 99.9347 52.7003 97.9606 54.6958 96.0047C55.9087 94.8173 57.4851 94.7695 58.5607 95.8393C59.6549 96.9312 59.6216 98.4642 58.4161 99.6774C56.339 101.766 54.2581 103.857 52.118 105.883C51.6172 106.357 50.8828 106.593 50.5379 106.784H50.5416Z" fill="#1F1F1F"/>
<path d="M113.485 44.4185C113.278 44.7825 113.04 45.4773 112.577 45.9515C110.503 48.0912 108.378 50.1793 106.245 52.2638C105.103 53.3777 103.482 53.3961 102.428 52.3741C101.349 51.33 101.349 49.7712 102.503 48.6058C104.621 46.4662 106.764 44.3523 108.916 42.2458C109.769 41.4113 110.796 41.2017 111.894 41.6907C112.918 42.1465 113.396 42.9994 113.485 44.4185Z" fill="#1F1F1F"/>
<path d="M104.654 95.0526C104.999 95.24 105.707 95.4606 106.186 95.9202C108.341 97.9752 110.444 100.085 112.536 102.207C113.727 103.416 113.727 104.979 112.606 106.045C111.542 107.059 109.969 107.008 108.801 105.861C106.672 103.776 104.558 101.677 102.458 99.5671C101.624 98.7289 101.379 97.7179 101.883 96.6223C102.347 95.6114 103.189 95.1187 104.658 95.0562L104.654 95.0526Z" fill="#1F1F1F"/>
<path d="M56.6017 53.2491C56.0194 52.9476 55.3295 52.7564 54.8732 52.3226C52.67 50.2271 50.515 48.0802 48.3748 45.9222C47.2621 44.7972 47.2621 43.2826 48.2895 42.2274C49.3281 41.1613 50.9453 41.1429 52.0914 42.2569C54.2501 44.3524 56.3829 46.481 58.5082 48.6132C59.3428 49.4514 59.6061 50.4587 59.1054 51.558C58.6454 52.569 57.822 53.0873 56.6017 53.2527V53.2491Z" fill="#1F1F1F"/>
<path d="M77.8851 36.1946C77.8851 34.6983 77.8665 33.1984 77.8888 31.7021C77.9147 30.1103 79.0349 28.9853 80.5297 29C81.9799 29.0147 83.1001 30.136 83.1112 31.669C83.1372 34.6652 83.1335 37.6578 83.1112 40.654C83.1001 42.2605 81.9911 43.3561 80.4703 43.345C78.9941 43.334 77.9147 42.2458 77.8888 40.6871C77.8628 39.1908 77.885 37.6909 77.8813 36.1946H77.8851Z" fill="#1F1F1F"/>
</g>
<defs>
<clipPath id="clip0_304_124">
<rect width="91" height="94" fill="white" transform="translate(35 29)"/>
</clipPath>
</defs>
</svg>
