<svg width="163" height="340" viewBox="0 0 163 340" fill="none" xmlns="http://www.w3.org/2000/svg">
<line x1="82.5" y1="160" x2="82.5" y2="308" stroke="#EDF4FB" stroke-width="2" stroke-dasharray="8 8"/>
<ellipse cx="81.5" cy="80" rx="81.5" ry="80" fill="#FAF6FA"/>
<ellipse cx="81.4992" cy="324" rx="16.3" ry="16" fill="#FAF6FA"/>
<g clip-path="url(#clip0_304_128)">
<path d="M65.8945 110.943C66.0976 108.442 66.0286 105.88 66.565 103.454C67.722 98.197 72.6414 94.3302 77.963 94.2176C81.0242 94.1516 84.0854 94.1477 87.1427 94.2176C93.3992 94.3651 98.7362 99.6101 98.9814 105.923C99.1155 109.374 99.0388 112.833 98.9967 116.289C98.9929 116.607 98.5982 117.061 98.2764 117.213C94.9968 118.738 91.5104 119.445 87.9396 119.79C80.7215 120.485 73.7103 119.371 66.814 117.286C66.2662 117.119 66.0593 116.879 66.0708 116.285C66.1091 114.51 66.0861 112.732 66.0861 110.954C66.0248 110.95 65.9597 110.943 65.8984 110.939L65.8945 110.943Z" fill="#B6B6B6"/>
<path d="M63.8421 109.949C61.0185 109.514 58.3979 109.192 55.8156 108.691C53.8195 108.303 51.8694 107.681 49.8925 107.188C49.3178 107.045 49.0726 106.8 49.0803 106.144C49.1186 102.98 49.0649 99.8159 49.1032 96.6518C49.1875 89.6908 54.3253 84.3371 61.2062 84.112C64.2904 84.011 67.3822 84.0964 70.5737 84.0964C70.7729 87.3265 71.9299 90.0868 74.198 92.4123C66.4321 95.5182 63.1755 101.392 63.8383 109.953L63.8421 109.949Z" fill="#B6B6B6"/>
<path d="M53.5245 74.5266C53.7275 77.7644 54.8692 80.5325 57.191 82.8968C53.6011 84.1974 50.7889 86.3482 48.8082 89.6016C46.8236 92.8666 46.5707 96.4577 46.7508 100.224C46.1493 100.224 45.655 100.255 45.1646 100.22C41.2644 99.9479 37.4791 99.187 33.8586 97.6379C33.2034 97.3584 32.985 96.9935 32.9965 96.2675C33.0425 93.3946 33.0118 90.5217 33.0157 87.6488C33.0233 80.2646 37.7971 75.0041 45.0574 74.5538C47.8159 74.3829 50.5935 74.5266 53.5168 74.5266H53.5245Z" fill="#B6B6B6"/>
<path d="M90.8671 92.4551C93.1352 90.0868 94.3459 87.3886 94.4992 84.2712C94.5988 84.1974 94.6524 84.1275 94.6984 84.1275C98.2576 84.2013 101.886 83.8674 105.361 84.4575C111.089 85.4358 114.908 90.5915 115.035 96.7256C115.1 99.8237 115.027 102.926 115.065 106.024C115.073 106.629 114.813 106.878 114.334 107.095C111.46 108.392 108.437 109.13 105.326 109.514C104.039 109.673 102.74 109.762 101.303 109.894C101.491 106.09 101.258 102.464 99.2653 99.1753C97.3036 95.9336 94.5221 93.7673 90.8633 92.4512L90.8671 92.4551Z" fill="#B6B6B6"/>
<path d="M117.223 100.057C117.867 91.6786 114.725 85.7348 106.859 82.5668C109.07 80.2646 110.292 77.5082 110.461 74.1655C114.66 74.5421 118.867 73.5288 122.928 75.0235C127.602 76.7473 130.847 81.3012 130.954 86.356C131.023 89.6482 130.95 92.9404 131 96.2325C131.012 96.8809 130.675 97.0711 130.23 97.2652C127.437 98.4959 124.518 99.253 121.502 99.6335C120.15 99.8043 118.786 99.9052 117.227 100.057H117.223Z" fill="#B6B6B6"/>
<path d="M71.584 54.6181C71.5917 48.717 76.2926 43.9767 82.1161 44C87.8975 44.0233 92.541 48.7558 92.5449 54.622C92.5449 60.5115 87.7941 65.3178 82.0204 65.2595C76.2237 65.2013 71.5763 60.461 71.584 54.622V54.6181Z" fill="#B6B6B6"/>
<path d="M92.212 83.7005C92.2235 89.0697 87.8444 93.4994 82.5419 93.4916C77.2816 93.48 72.9369 89.1124 72.8795 83.7742C72.822 78.4749 77.2509 73.9404 82.5189 73.9054C87.7716 73.8705 92.2005 78.3468 92.212 83.7005Z" fill="#B6B6B6"/>
<path d="M55.9414 73.5948C55.9414 68.6837 59.4508 64.6539 64.3817 63.8929C68.8528 63.2019 73.3928 66.1796 74.7759 70.7103C74.8525 70.9548 74.9407 71.1994 75.002 71.4479C75.3544 72.896 75.4579 74.1383 74.0633 75.3069C72.3124 76.7705 71.4121 78.8825 70.868 81.1304C70.7646 81.5574 70.3891 82.0388 70.006 82.2523C63.7495 85.7154 55.9414 80.8897 55.9452 73.587L55.9414 73.5948Z" fill="#B6B6B6"/>
<path d="M39.8577 64.0016C39.8883 58.8925 43.9954 54.4783 48.9033 54.2842C54.2211 54.0746 58.6577 57.9297 59.083 63.1747C59.1136 63.5319 58.8914 64.0599 58.6117 64.2695C55.903 66.3116 54.2402 68.9787 53.6579 72.3563C53.6081 72.6553 53.2786 73.0163 52.9912 73.1445C48.8918 74.9575 43.482 73.094 41.2752 69.1457C40.2676 67.3443 39.8462 65.8147 39.8577 64.0016Z" fill="#B6B6B6"/>
<path d="M98.5195 83.4131C98.0137 83.3588 97.508 83.3238 97.0061 83.2462C95.4698 83.0171 94.3434 82.6056 94.0292 80.6256C93.581 77.7877 91.8262 75.5942 89.516 73.9248C89.0409 73.5831 88.857 73.2415 88.9145 72.6514C89.3704 68.1673 92.7611 64.6189 97.3126 63.9007C101.385 63.2562 105.738 65.772 107.435 69.7513C110.163 76.1494 105.412 83.4093 98.5156 83.4131H98.5195Z" fill="#B6B6B6"/>
<path d="M124.139 63.5513C124.139 70.4152 117.564 75.1749 111.369 73.0163C110.721 72.7911 110.373 72.4806 110.239 71.7041C109.695 68.5944 108.139 66.0553 105.614 64.1841C105.024 63.7493 104.81 63.3533 104.898 62.6001C105.423 58.0151 109.108 54.4201 113.825 53.9736C118.047 53.5737 122.365 56.5321 123.648 60.7172C123.809 61.2374 123.958 61.7693 124.05 62.3089C124.131 62.7826 124.123 63.2717 124.142 63.5513H124.139Z" fill="#B6B6B6"/>
<path d="M70.7039 49.1945C68.8112 53.6941 69.3323 57.9724 72.0678 62.0178C71.9069 62.2197 71.7766 62.3982 71.6311 62.5652C71.4433 62.7787 71.2479 62.9884 71.0066 63.2485C67.704 61.4626 64.321 61.3461 60.8345 62.868C60.5434 60.725 59.9763 58.7644 58.6737 57.1688C57.7925 56.0895 56.7121 55.1694 55.67 54.2299C55.3213 53.9154 55.1528 53.7174 55.3175 53.2011C57.3826 46.7137 65.7654 44.4969 70.7039 49.1945Z" fill="#B6B6B6"/>
<path d="M109.223 53.1273C105.541 55.1771 103.388 58.2713 102.863 62.6001C99.5987 61.5053 96.434 61.4587 93.2847 63.0155C93.1736 62.8563 93.1008 62.7049 92.9859 62.6001C92.2158 61.8935 92.2235 61.2529 92.756 60.2862C94.4571 57.2037 94.7176 53.9037 93.5874 50.5611C93.3231 49.7768 93.5299 49.3964 94.0587 48.9383C99.0853 44.594 106.805 46.6632 109.223 53.1273Z" fill="#B6B6B6"/>
<path d="M77.0331 72.9659C76.9642 70.4501 76.2362 68.3188 74.834 66.1912C79.7074 65.8185 84.3853 65.8923 88.9943 66.133C88.2549 68.2683 87.5653 70.2716 86.8412 72.368C83.7072 71.114 80.3855 71.2577 77.0331 72.9659Z" fill="#B6B6B6"/>
</g>
<defs>
<clipPath id="clip0_304_128">
<rect width="98" height="76" fill="white" transform="translate(33 44)"/>
</clipPath>
</defs>
</svg>
