<svg width="160" height="340" viewBox="0 0 160 340" fill="none" xmlns="http://www.w3.org/2000/svg">
<line x1="81" y1="160" x2="81" y2="308" stroke="#EDF4FB" stroke-width="2" stroke-dasharray="8 8"/>
<circle cx="80" cy="80" r="80" fill="#57FFDC" fill-opacity="0.933333"/>
<circle cx="80" cy="324" r="16" fill="#53F0CF"/>
<g clip-path="url(#clip0_304_125)">
<path d="M90.0686 40.9998C84.541 47.4855 85.022 56.3056 90.6578 62.1977C85.7435 64.3115 82.9817 67.9815 82.6771 73.4364H75.9349V85.4292H74.7565C65.6173 85.4292 56.4821 85.4292 47.343 85.4292C42.8896 85.4292 40.0076 82.5613 40.0076 78.1172C39.9996 68.142 39.9956 58.1627 40.0076 48.1874C40.0156 44 42.9417 41.0159 47.0904 41.0078C61.1319 40.9918 75.1733 40.9998 89.2108 40.9998C89.4353 40.9998 89.6557 40.9998 90.0646 40.9998H90.0686ZM50.3212 65.0134V71.7077H70.712V65.0134H50.3212ZM63.8857 51.2638C59.4604 51.2638 55.1634 51.2558 50.8664 51.2839C50.6659 51.2839 50.2932 51.5807 50.2892 51.7411C50.2491 53.8268 50.2651 55.9166 50.2651 58.0303H63.8857V51.2598V51.2638ZM70.8162 51.316V58.0464H77.5343V51.316H70.8162Z" fill="#1F1F1F"/>
<path d="M121.928 85.3852H81.0498V78.6588H87.82C87.82 76.9662 87.7078 75.3699 87.8561 73.7976C87.9723 72.5662 88.1928 71.2506 88.7459 70.1677C89.9364 67.8493 92.0208 66.6821 94.6143 66.65C99.1798 66.5899 103.745 66.5939 108.315 66.642C112.239 66.6861 115.085 69.6222 115.169 73.6291C115.201 75.2535 115.173 76.878 115.173 78.5826H121.928V85.3852Z" fill="#1F1F1F"/>
<path d="M111.747 51.1517C111.883 56.7149 107.322 61.3877 101.614 61.5241C96.094 61.6564 91.3921 57.104 91.2438 51.4846C91.0955 45.8894 95.625 41.1644 101.277 41.012C106.921 40.8596 111.602 45.396 111.743 51.1517H111.747Z" fill="#1F1F1F"/>
<path d="M50.2733 111.059C44.6375 111.059 40.0118 106.451 40.0078 100.827C40.0038 95.188 44.6055 90.5875 50.2533 90.5875C55.9172 90.5875 60.4948 95.1439 60.5148 100.811C60.5309 106.439 55.9132 111.059 50.2733 111.063V111.059Z" fill="#1F1F1F"/>
<path d="M91.2313 100.86C91.2153 106.519 86.6257 111.075 80.9578 111.055C75.3059 111.035 70.7564 106.439 70.7764 100.767C70.7965 95.0958 75.3701 90.5594 81.05 90.5834C86.7339 90.6075 91.2474 95.168 91.2313 100.86Z" fill="#1F1F1F"/>
<path d="M111.702 90.5834C117.358 90.5554 121.967 95.1158 122 100.771C122.032 106.391 117.418 111.039 111.786 111.055C106.134 111.071 101.537 106.519 101.493 100.856C101.448 95.2321 106.042 90.6075 111.702 90.5834Z" fill="#1F1F1F"/>
<path d="M94.5707 123H67.3496C67.4338 122.378 67.4578 121.797 67.6021 121.243C68.3237 118.448 70.8169 116.294 73.6548 116.25C78.5531 116.169 83.4594 116.153 88.3577 116.25C91.865 116.322 94.7992 119.575 94.5747 122.996L94.5707 123Z" fill="#1F1F1F"/>
<path d="M40.084 116.205C41.2945 116.205 42.4249 116.205 43.5553 116.205C48.1208 116.205 52.6904 116.165 57.256 116.229C60.7754 116.278 63.5211 118.877 63.8819 122.354C63.9019 122.543 63.8819 122.735 63.8819 122.984H40.084V116.205Z" fill="#1F1F1F"/>
<path d="M121.948 116.278V122.96H98.2137C97.8329 120.353 100.038 117.316 102.952 116.486C103.585 116.306 104.262 116.217 104.92 116.217C110.351 116.197 115.787 116.201 121.218 116.205C121.442 116.205 121.667 116.246 121.944 116.274L121.948 116.278Z" fill="#1F1F1F"/>
</g>
<defs>
<clipPath id="clip0_304_125">
<rect width="82" height="82" fill="white" transform="translate(40 41)"/>
</clipPath>
</defs>
</svg>
