<svg width="160" height="340" viewBox="0 0 160 340" fill="none" xmlns="http://www.w3.org/2000/svg">
<line x1="81" y1="160" x2="81" y2="308" stroke="#EDF4FB" stroke-width="2" stroke-dasharray="8 8"/>
<circle cx="80" cy="80" r="80" fill="#FAF6FA"/>
<circle cx="80" cy="324" r="16" fill="#FAF6FA"/>
<g clip-path="url(#clip0_304_126)">
<path d="M89.6624 56.7465C86.0558 55.2426 82.4248 54.5837 78.6412 54.7728C73.1428 55.0474 68.2333 56.9081 63.9767 60.3856C59.5066 64.037 56.5774 68.7042 55.3538 74.3536C54.9663 76.1504 54.8503 78.0172 54.7252 79.8597C54.5971 81.7632 53.6786 82.6722 51.7868 82.4312C48.8423 82.053 45.904 81.629 42.9717 81.1806C41.7084 80.9884 40.9487 79.9634 41.0005 78.6029C41.327 70.0525 44.0122 62.3318 49.3672 55.6361C55.8634 47.5158 64.3368 42.754 74.6287 41.3661C83.2517 40.2039 91.3956 41.8145 98.9749 46.1187C99.6005 46.4725 99.9788 46.4908 100.501 45.9296C101.709 44.627 103.009 43.4099 104.254 42.1439C105.007 41.3783 105.862 40.9756 106.927 41.3539C107.958 41.723 108.345 42.568 108.489 43.5899C109.52 50.8957 110.561 58.2015 111.604 65.5073C111.867 67.3468 110.664 68.5883 108.846 68.329C101.514 67.2858 94.1783 66.2456 86.8461 65.2084C85.8239 65.065 84.9787 64.6654 84.6187 63.6283C84.2525 62.5667 84.6583 61.7095 85.4242 60.9591C86.8186 59.5925 88.1917 58.2046 89.6594 56.7404L89.6624 56.7465Z" fill="#B6B6B6"/>
<path d="M60.1294 113.521C58.6373 115.016 57.1117 116.535 55.5952 118.063C55.0124 118.649 54.3564 119.043 53.499 118.93C52.3944 118.783 51.6743 118.079 51.4882 116.865C51.0671 114.107 50.6826 111.346 50.286 108.586C49.6482 104.144 49.0136 99.7028 48.3789 95.2583C48.324 94.8831 48.2721 94.5018 48.266 94.1236C48.2416 92.6776 49.398 91.6039 50.8352 91.7991C54.4052 92.2841 57.9691 92.8058 61.533 93.3121C65.2983 93.849 69.0636 94.392 72.8319 94.9228C73.6527 95.0387 74.4338 95.2065 74.9678 95.9264C75.6757 96.8812 75.5659 98.0647 74.6261 99.0256C73.4208 100.261 72.1881 101.469 70.9676 102.689C70.7936 102.863 70.6289 103.046 70.2719 103.421C72.2888 103.943 74.1195 104.556 76.0022 104.876C82.6631 106.008 88.8359 104.638 94.3892 100.822C99.7534 97.1374 103.192 92.0523 104.642 85.7013C105.029 84.0083 105.151 82.2421 105.27 80.5033C105.414 78.3954 106.53 77.462 108.639 77.7853C111.296 78.1911 113.96 78.5602 116.624 78.9262C118.244 79.1489 119.05 80.0701 118.995 81.696C118.409 99.2941 105.822 114.391 88.5948 118.067C78.9589 120.123 69.7898 118.777 61.1485 113.997C60.8831 113.851 60.6146 113.704 60.346 113.561C60.3033 113.54 60.2515 113.54 60.1263 113.515L60.1294 113.521Z" fill="#B6B6B6"/>
</g>
<defs>
<clipPath id="clip0_304_126">
<rect width="78" height="78" fill="white" transform="translate(41 41)"/>
</clipPath>
</defs>
</svg>
